<?xml version="1.0" encoding="UTF-8" standalone="no"?>
<svg
   xmlns:dc="http://purl.org/dc/elements/1.1/"
   xmlns:cc="http://creativecommons.org/ns#"
   xmlns:rdf="http://www.w3.org/1999/02/22-rdf-syntax-ns#"
   xmlns:svg="http://www.w3.org/2000/svg"
   xmlns="http://www.w3.org/2000/svg"
   viewBox="0 0 789.32001 126.90667"
   height="126.90667"
   width="789.32001"
   xml:space="preserve"
   id="svg2"
   version="1.1"><metadata
     id="metadata8"><rdf:RDF><cc:Work
         rdf:about=""><dc:format>image/svg+xml</dc:format><dc:type
           rdf:resource="http://purl.org/dc/dcmitype/StillImage" /></cc:Work></rdf:RDF></metadata><defs
     id="defs6"><clipPath
       id="clipPath20"
       clipPathUnits="userSpaceOnUse"><path
         id="path18"
         d="M 0,951.816 V 0 h 5919.94 v 951.816 z" /></clipPath></defs><g
     transform="matrix(1.3333333,0,0,-1.3333333,0,126.90667)"
     id="g10"><g
       transform="scale(0.1)"
       id="g12"><g
         id="g14"><g
           clip-path="url(#clipPath20)"
           id="g16"><path
             id="path22"
             style="fill:#dbdbd5;fill-opacity:1;fill-rule:nonzero;stroke:none"
             d="m 1936,469.734 c 0,193.797 -133.24,339.157 -323.02,339.157 -189.79,0 -323.03,-145.36 -323.03,-339.157 0,-193.828 133.24,-339.16 323.03,-339.16 189.78,0 323.02,145.332 323.02,339.16 z m -795.45,0 c 0,270.516 209.96,469.743 472.43,469.743 262.44,0 472.43,-199.227 472.43,-469.743 C 2085.41,199.188 1875.42,0 1612.98,0 1350.51,0 1140.55,199.188 1140.55,469.734" /><path
             id="path24"
             style="fill:#dbdbd5;fill-opacity:1;fill-rule:nonzero;stroke:none"
             d="m 2964.29,469.734 c 0,193.797 -133.24,339.157 -323.02,339.157 -189.77,0 -323.03,-145.36 -323.03,-339.157 0,-193.828 133.26,-339.16 323.03,-339.16 189.78,0 323.02,145.332 323.02,339.16 z m -795.44,0 c 0,270.516 209.95,469.743 472.42,469.743 262.44,0 472.41,-199.227 472.41,-469.743 C 3113.68,199.188 2903.71,0 2641.27,0 2378.8,0 2168.85,199.188 2168.85,469.734" /><path
             id="path26"
             style="fill:#dbdbd5;fill-opacity:1;fill-rule:nonzero;stroke:none"
             d="m 3035.61,927.363 h 158.83 l 259.76,-477.804 255.72,477.804 h 150.74 L 3524.19,304.148 V 12.1094 H 3380.2 V 302.832 l -344.59,624.531" /><path
             id="path28"
             style="fill:#dbdbd5;fill-opacity:1;fill-rule:nonzero;stroke:none"
             d="M 4023.54,629.883 3871.44,267.82 h 301.49 z M 3765.13,12.1094 H 3619.79 L 4020.83,946.18 h 8.08 L 4431.35,12.1094 h -152.07 l -52.5,127.8986 H 3817.59 L 3765.13,12.1094" /><path
             id="path30"
             style="fill:#dbdbd5;fill-opacity:1;fill-rule:nonzero;stroke:none"
             d="M 5512.13,629.883 5360.02,267.82 h 301.51 z M 5253.71,12.1094 H 5108.35 L 5509.46,946.18 h 8.06 L 5919.94,12.1094 H 5767.86 L 5715.35,140.008 H 5306.2 Z M 4505.4,927.363 h 143.98 V 140.008 h 409.16 L 5003.36,12.1094 H 4505.4 V 927.363" /><path
             id="path32"
             style="fill:#dbdbd5;fill-opacity:1;fill-rule:nonzero;stroke:none"
             d="m 5828.6,897.996 c -4.23,2.399 -11.04,3.555 -20.4,3.555 h -14.38 V 866.91 h 15.22 c 7.13,0 12.46,0.715 16.07,2.16 6.54,2.594 9.84,7.59 9.84,14.942 0,6.949 -2.12,11.59 -6.35,13.984 z m -18.18,15.066 c 11.84,0 20.56,-1.16 26.09,-3.437 9.9,-4.152 14.81,-12.234 14.81,-24.219 0,-8.547 -3.12,-14.82 -9.32,-18.898 -3.34,-2.113 -7.91,-3.676 -13.82,-4.59 7.45,-1.199 12.96,-4.316 16.4,-9.395 3.47,-5.027 5.18,-9.988 5.18,-14.785 v -6.984 c 0,-2.203 0.09,-4.602 0.24,-7.117 0.14,-2.512 0.44,-4.157 0.83,-4.957 l 0.61,-1.196 h -15.77 c -0.07,0.325 -0.18,0.637 -0.24,0.957 -0.1,0.325 -0.16,0.68 -0.23,1.039 l -0.37,3.075 v 7.59 c 0,11.031 -2.99,18.3 -9.03,21.863 -3.54,2.035 -9.78,3.035 -18.72,3.035 h -13.26 v -37.559 h -16.85 v 95.578 z m -51.23,4.833 c -14.54,-14.625 -21.81,-32.286 -21.81,-52.985 0,-20.859 7.2,-38.676 21.69,-53.34 14.54,-14.707 32.21,-22.054 53.01,-22.054 20.78,0 38.44,7.347 52.98,22.054 14.57,14.664 21.82,32.481 21.82,53.34 0,20.699 -7.25,38.36 -21.82,52.985 -14.62,14.703 -32.27,22.054 -52.98,22.054 -20.66,0 -38.27,-7.351 -52.89,-22.054 z m 114.54,-114.637 c -17,-17.059 -37.54,-25.574 -61.65,-25.574 -24.13,0 -44.62,8.515 -61.56,25.574 -16.8,17.023 -25.24,37.601 -25.24,61.777 0,23.93 8.5,44.434 25.5,61.41 16.91,16.899 37.34,25.371 61.3,25.371 24.11,0 44.65,-8.472 61.65,-25.371 16.98,-16.937 25.47,-37.398 25.47,-61.41 0,-24.097 -8.49,-44.715 -25.47,-61.777" /><path
             id="path34"
             style="fill:#eeae1e;fill-opacity:1;fill-rule:nonzero;stroke:none"
             d="m 627.227,786.797 c 0,-83.039 -67.309,-150.363 -150.364,-150.363 -83.023,0 -150.336,67.324 -150.336,150.363 0,83.031 67.313,150.32 150.336,150.32 83.055,0 150.364,-67.289 150.364,-150.32" /><path
             id="path36"
             style="fill:#95182e;fill-opacity:1;fill-rule:nonzero;stroke:none"
             d="m 300.707,551.449 c 0,-83.035 -67.312,-150.355 -150.359,-150.355 C 67.3164,401.094 0,468.414 0,551.449 c 0,83.028 67.3164,150.363 150.348,150.363 83.047,0 150.359,-67.335 150.359,-150.363" /><path
             id="path38"
             style="fill:#9a49aa;fill-opacity:1;fill-rule:nonzero;stroke:none"
             d="m 424.02,165.02 c 0,-83.0278 -67.305,-150.3638 -150.332,-150.3638 -83.051,0 -150.344,67.336 -150.344,150.3638 0,83.035 67.293,150.359 150.344,150.359 83.027,0 150.332,-67.324 150.332,-150.359" /><path
             id="path40"
             style="fill:#6d9e2d;fill-opacity:1;fill-rule:nonzero;stroke:none"
             d="m 830.43,165.02 c 0,-83.0278 -67.309,-150.3638 -150.34,-150.3638 -83.043,0 -150.367,67.336 -150.367,150.3638 0,83.035 67.324,150.359 150.367,150.359 83.031,0 150.34,-67.324 150.34,-150.359" /><path
             id="path42"
             style="fill:#7bd3df;fill-opacity:1;fill-rule:nonzero;stroke:none"
             d="m 953.766,551.449 c 0,-83.035 -67.325,-150.355 -150.336,-150.355 -83.047,0 -150.383,67.32 -150.383,150.355 0,83.028 67.336,150.403 150.383,150.403 83.011,0 150.336,-67.375 150.336,-150.403" /></g></g></g></g></svg>